HIERARCHY
ROOT root
{
  OFFSET 0.000000 0.000000 0.000000
  CHANNELS 6 Xposition Yposition Zposition Zrotation Yrotation Xrotation
  JOINT lhipjoint
  {
    OFFSET 0.000000 0.000000 0.000000
    CHANNELS 3 Zrotation Yrotation Xrotation
    JOINT lfemur
    {
      OFFSET 0.102897 -0.089377 0.049154
      CHANNELS 3 Zrotation Yrotation Xrotation
      JOINT ltibia
      {
        OFFSET 0.137606 -0.378070 0.000000
        CHANNELS 3 Zrotation Yrotation Xrotation
        JOINT lfoot
        {
          OFFSET 0.146354 -0.402104 0.000000
          CHANNELS 3 Zrotation Yrotation Xrotation
          JOINT ltoes
          {
            OFFSET 0.008214 -0.022567 0.120317
            CHANNELS 3 Zrotation Yrotation Xrotation
            End Site
            {
              OFFSET 0.000000 -0.000000 0.061765
            }
          }
        }
      }
    }
  }
  JOINT rhipjoint
  {
    OFFSET 0.000000 0.000000 0.000000
    CHANNELS 3 Zrotation Yrotation Xrotation
    JOINT rfemur
    {
      OFFSET -0.100036 -0.089377 0.049154
      CHANNELS 3 Zrotation Yrotation Xrotation
      JOINT rtibia
      {
        OFFSET -0.141508 -0.388790 0.000000
        CHANNELS 3 Zrotation Yrotation Xrotation
        JOINT rfoot
        {
          OFFSET -0.147670 -0.405720 0.000000
          CHANNELS 3 Zrotation Yrotation Xrotation
          JOINT rtoes
          {
            OFFSET -0.008574 -0.023557 0.121905
            CHANNELS 3 Zrotation Yrotation Xrotation
            End Site
            {
              OFFSET -0.000000 -0.000000 0.062608
            }
          }
        }
      }
    }
  }
  JOINT lowerback
  {
    OFFSET 0.000000 0.000000 0.000000
    CHANNELS 3 Zrotation Yrotation Xrotation
    JOINT upperback
    {
      OFFSET -0.002033 0.119901 -0.017074
      CHANNELS 3 Zrotation Yrotation Xrotation
      JOINT thorax
      {
        OFFSET 0.001534 0.118558 0.007288
        CHANNELS 3 Zrotation Yrotation Xrotation
        JOINT lowerneck
        {
          OFFSET 0.002175 0.121761 0.016192
          CHANNELS 3 Zrotation Yrotation Xrotation
          JOINT upperneck
          {
            OFFSET -0.003596 0.106486 0.006549
            CHANNELS 3 Zrotation Yrotation Xrotation
            JOINT head
            {
              OFFSET 0.004633 0.105979 -0.006494
              CHANNELS 3 Zrotation Yrotation Xrotation
              End Site
              {
                OFFSET 0.001909 0.108988 -0.003095
              }
            }
          }
        }
        JOINT lclavicle
        {
          OFFSET 0.002175 0.121761 0.016192
          CHANNELS 3 Zrotation Yrotation Xrotation
          JOINT lhumerus
          {
            OFFSET 0.186776 0.079223 0.011377
            CHANNELS 3 Zrotation Yrotation Xrotation
            JOINT lradius
            {
              OFFSET 0.306663 -0.000000 0.000000
              CHANNELS 3 Zrotation Yrotation Xrotation
              JOINT lwrist
              {
                OFFSET 0.178328 -0.000000 0.000000
                CHANNELS 3 Zrotation Yrotation Xrotation
                End Site
                {
                  OFFSET 0.089164 -0.000000 0.000000
                }
              }
            }
          }
        }
        JOINT rclavicle
        {
          OFFSET 0.002175 0.121761 0.016192
          CHANNELS 3 Zrotation Yrotation Xrotation
          JOINT rhumerus
          {
            OFFSET -0.176641 0.090332 -0.000262
            CHANNELS 3 Zrotation Yrotation Xrotation
            JOINT rradius
            {
              OFFSET -0.301523 -0.000000 0.000000
              CHANNELS 3 Zrotation Yrotation Xrotation
              JOINT rwrist
              {
                OFFSET -0.180256 -0.000000 0.000000
                CHANNELS 3 Zrotation Yrotation Xrotation
                End Site
                {
                  OFFSET -0.090128 -0.000000 0.000000
                }
              }
            }
          }
        }
      }
    }
  }
}
MOTION
Frames: 12
Frame Time: 0.04166667
0.00000 0.81609 0.00000 -6.85907 0.00003 -6.32536 0.00000 -0.00000 0.00000 -23.35883 -21.45376 -24.05821 16.79009 19.75115 80.57735 1.47171 11.13728 -29.33834 0.57588 -4.85958 -13.50850 0.00000 -0.00000 0.00000 10.57548 20.84455 -48.44714 -5.93372 -14.36380 44.71512 -0.28552 8.48554 16.52252 -1.04133 -6.48989 18.21264 -5.23721 -1.01240 18.62860 3.66619 -2.06318 1.79410 7.53310 -0.74216 -8.17163 -8.65514 -1.58675 1.31183 10.03940 -2.43993 3.56176 4.41312 -1.23039 1.05803 -0.00000 0.00000 0.00000 -124.72509 -62.02358 138.87315 134.10414 -51.19989 -97.06517 0.00000 -0.00000 -15.57520 -0.00000 0.00000 0.00000 59.84250 32.36614 50.00487 -63.96407 57.27692 -37.65835 -0.00000 -0.00000 2.26372
0.00000 0.81413 0.00000 -5.27890 -15.18721 -3.70669 0.00000 -0.00000 0.00000 -23.00244 -15.65755 -31.03391 16.55573 19.71317 79.88319 0.88054 15.67800 -29.42683 0.25947 -3.27720 -9.05147 0.00000 -0.00000 0.00000 14.87643 19.46767 -52.12418 -9.28693 -16.98885 57.07721 0.17650 7.47223 1.85218 -2.26578 -9.39902 27.05166 -5.65566 1.13742 19.15770 1.84594 0.48231 2.15626 5.12096 0.45910 -8.46326 -7.25048 0.95364 -0.26715 9.01825 1.17161 2.26334 4.27921 0.60095 0.67198 -0.00000 -0.00000 0.00000 -154.62679 -69.90656 173.96087 130.89038 -52.63002 -94.53518 0.00000 -0.00000 -8.24345 -0.00000 -0.00000 0.00000 64.81893 37.12761 65.32312 -65.65715 57.63805 -39.08564 -0.00000 0.00000 -4.03672
0.00000 0.80587 0.00000 -5.37921 -26.84773 -2.16013 0.00000 -0.00000 0.00000 -20.73133 -9.43671 -39.07975 17.43144 19.84108 82.47089 0.60955 16.79893 -28.73502 0.13411 -2.36037 -6.50267 0.00000 -0.00000 0.00000 16.11487 17.76682 -51.35197 -15.34564 -19.47249 76.27566 -0.30345 3.83622 -9.79476 -5.43389 -13.85636 42.66509 -5.30460 2.28885 20.62810 0.81981 1.86768 2.02038 3.40002 1.10999 -9.55118 -6.37252 3.12378 -0.99305 7.94462 4.16877 1.44274 3.71815 2.10847 0.30719 0.00000 -0.00000 0.00000 -177.05787 -71.52689 -163.68740 126.17071 -54.42782 -90.73860 0.00000 0.00000 7.62163 0.00000 -0.00000 0.00000 69.62704 41.67507 80.59152 -74.21810 59.03765 -46.37664 -0.00000 0.00000 -16.19580
0.00000 0.80239 0.00000 -7.92208 -35.74595 1.70083 0.00000 -0.00000 0.00000 -16.23497 -3.61082 -46.30535 17.85791 19.88963 83.72588 0.82050 14.76256 -28.06355 0.11528 -2.18903 -6.02836 0.00000 -0.00000 0.00000 14.77914 14.10389 -46.22034 -19.63780 -19.99685 88.94094 -0.28182 -7.23125 -15.18808 -8.74728 -16.64231 55.21197 -3.99357 2.61488 19.89960 0.83792 2.61589 1.53573 2.46532 1.42045 -9.70769 -5.42542 4.97239 -0.99019 6.68884 6.68045 0.50747 3.06802 3.35738 -0.10807 -0.00000 -0.00000 0.00000 168.50931 -72.06580 -152.04178 121.67459 -55.84694 -87.04853 0.00000 0.00000 12.45190 -0.00000 -0.00000 0.00000 74.71763 45.33179 93.72023 -82.94287 59.81097 -53.89222 -0.00000 0.00000 -23.39380
0.00000 0.80668 0.00000 -9.60607 -42.08775 5.40311 0.00000 -0.00000 0.00000 -15.13610 2.56838 -51.25703 16.92346 19.77154 80.97182 0.84754 15.10300 -28.60618 0.00001 0.02284 0.06275 0.00000 -0.00000 0.00000 9.16658 8.21220 -37.94789 -20.67476 -19.98908 91.97321 0.36531 -14.96588 -16.72326 -10.23937 -17.54228 60.28544 -3.30295 3.06495 18.18220 0.81786 3.42349 0.95688 1.87432 1.78403 -9.41628 -4.30162 6.11725 -1.54992 5.42319 8.19249 1.16715 2.46349 4.11908 0.20365 -0.00000 0.00000 0.00000 162.52243 -73.25468 -148.99286 121.98166 -55.75834 -87.30251 0.00000 0.00000 10.46370 -0.00000 0.00000 0.00000 77.95596 47.89919 102.34217 -91.86571 59.98684 -61.61568 -0.00000 0.00000 -36.38410
0.00000 0.80802 0.00000 -12.58615 -47.67125 9.69210 0.00000 -0.00000 0.00000 -13.13716 7.89128 -56.23915 16.55319 19.71274 79.87566 0.74051 14.91847 -27.63922 0.03375 1.18577 3.26011 0.00000 -0.00000 0.00000 3.84456 4.10644 -28.70251 -19.44692 -19.99266 88.38271 0.53239 -15.96446 -16.10684 -9.87865 -17.34105 59.08201 -2.44056 3.80453 16.89760 1.14329 4.65324 0.30332 1.46196 2.35498 -9.45333 -3.27538 7.01493 -2.31922 4.99807 9.36760 1.86425 2.19555 4.71921 0.56204 -0.00000 -0.00000 0.00000 156.21888 -76.18297 -145.64427 122.63070 -55.56718 -87.83845 0.00000 0.00000 14.00860 -0.00000 -0.00000 0.00000 80.12720 49.96135 107.99074 -100.70535 59.56249 -69.25748 -0.00000 0.00000 -47.86950
0.00000 0.80704 0.00000 -16.60229 -53.01612 14.26015 0.00000 -0.00000 0.00000 -9.90712 12.07150 -60.19468 16.60799 19.72188 80.03812 0.50750 14.51660 -25.38570 0.04677 1.39575 3.83843 0.00000 -0.00000 0.00000 -0.19482 -0.23508 -21.89625 -17.09902 -19.79702 81.49047 0.55014 -13.79673 -10.04550 -7.58213 -15.80313 51.04319 -1.11049 4.70647 16.72590 1.11861 6.12192 -0.32444 0.30220 2.99477 -9.97859 -2.25577 7.57017 -1.99716 4.63193 10.09210 1.41248 1.87833 5.07742 0.40409 -0.00000 0.00000 0.00000 145.43218 -80.49089 -136.01869 123.74551 -55.22633 -88.75606 0.00000 0.00000 15.54100 -0.00000 0.00000 0.00000 82.80350 50.42964 110.62348 -108.02015 58.73675 -75.53972 -0.00000 0.00000 -59.98960
0.00000 0.80898 0.00000 -21.62431 -58.45538 20.05454 0.00000 -0.00000 0.00000 -6.23284 14.48133 -62.65375 16.28176 19.66525 79.07005 -0.08813 16.62749 -22.72940 0.09467 1.98437 5.46247 0.00000 -0.00000 0.00000 -1.66132 -2.08958 -18.56464 -14.44561 -19.24366 73.56085 -0.16008 -0.41600 -7.71939 -0.36953 -3.90464 10.80853 -0.46308 5.55570 16.80980 1.38555 7.42944 -1.00695 -0.15119 3.58230 -10.77350 -1.60024 8.31960 -2.22017 4.08692 11.05910 2.16237 1.63886 5.56510 0.70678 0.00000 0.00000 0.00000 83.98799 -85.83944 -75.54330 124.65049 -54.93768 -89.49812 0.00000 0.00000 17.61870 0.00000 0.00000 0.00000 84.97380 48.51213 111.05124 -113.38263 57.82980 -80.10241 -0.00000 0.00000 -69.03250
0.00000 0.80940 0.00000 -29.28041 -63.38392 28.35865 0.00000 -0.00000 0.00000 0.02692 13.55418 -62.68169 16.01638 19.61519 78.28050 -0.63798 18.54130 -19.89415 0.21453 2.98184 8.22818 0.00000 -0.00000 0.00000 0.63750 -2.40835 -18.94161 -12.53367 -18.60725 67.67067 -0.14557 14.94245 -12.04500 -1.45835 7.63267 -21.60380 0.23407 5.85207 17.92520 1.82226 8.06525 -1.85960 -0.39762 3.81724 -12.36380 0.41334 9.35023 -2.45382 3.24486 12.34690 3.34957 1.14105 6.22387 1.25573 0.00000 -0.00000 0.00000 -6.71340 -75.81823 10.45186 125.27756 -54.73122 -90.01075 0.00000 0.00000 24.46200 0.00000 -0.00000 0.00000 84.11168 39.41993 104.62960 -123.16802 55.40489 -88.28119 -0.00000 0.00000 -79.35170
0.00000 0.80688 0.00000 -33.80818 -65.69391 34.70012 0.00000 -0.00000 0.00000 6.20839 8.81009 -61.89015 15.64617 19.53932 77.17569 -0.48407 15.88364 -16.70611 0.14476 2.45197 6.75650 0.00000 -0.00000 0.00000 4.69983 -2.64208 -20.16814 -11.23173 -18.04663 63.53183 -1.03941 11.98195 -18.84555 -0.52868 4.65945 -12.93973 1.42204 4.44958 18.05890 2.40219 6.53061 -1.96273 0.00275 3.04040 -12.47660 1.79703 10.81860 -3.26250 0.47750 14.32870 3.53108 0.22237 7.17941 1.73642 -0.00000 -0.00000 0.00000 -28.01620 -53.70837 14.70972 130.51034 -52.78759 -94.23284 0.00000 -0.00000 -7.56552 -0.00000 -0.00000 0.00000 78.33730 22.29919 93.06280 -136.65315 49.93241 -99.03417 -0.00000 0.00000 -82.93490
0.00000 0.80536 0.00000 -35.07655 -64.62750 37.58538 0.00000 -0.00000 0.00000 10.18409 6.10644 -64.09694 15.00325 19.39055 75.24649 -1.06794 18.56491 -12.20764 0.16126 2.58731 7.13182 0.00000 -0.00000 0.00000 10.58563 -3.33233 -20.47182 -10.15967 -17.49867 60.02070 -2.04813 -3.66002 -28.54274 -0.51375 -4.59419 12.75463 3.73900 3.35095 18.20870 3.29228 5.59273 -0.89671 -0.02406 2.50554 -11.21800 3.26058 10.96780 -4.29209 -3.51973 14.52160 0.04586 -1.22538 7.21871 1.24217 0.00000 -0.00000 0.00000 -53.84647 -34.51641 0.70553 132.13350 -52.09793 -95.51965 0.00000 -0.00000 -69.10870 0.00000 -0.00000 0.00000 70.72924 -0.98599 70.15585 -141.64475 47.06469 -102.77479 -0.00000 0.00000 -68.27770
0.00000 0.80488 0.00000 -28.80751 -60.27540 33.27705 0.00000 -0.00000 0.00000 13.19962 1.60509 -67.07207 14.17058 19.16496 72.72473 -0.59816 13.55003 -4.88140 0.06495 1.64438 4.52382 0.00000 -0.00000 0.00000 14.58492 -6.93020 -21.94820 -9.57171 -17.16187 58.04706 -1.58969 -14.72014 -33.02870 -3.07494 -10.81539 31.65977 5.59055 1.98451 17.58430 3.75683 4.13935 -0.58235 -0.13180 1.75006 -10.43860 4.42870 10.50460 -3.83462 -4.96265 13.85600 -1.29069 -1.94036 6.88245 0.92598 -0.00000 0.00000 0.00000 -75.72382 -24.93457 0.25095 136.14230 -50.19644 -98.64247 0.00000 -0.00000 -44.74220 -0.00000 0.00000 0.00000 69.27268 -17.73448 38.27003 -114.95796 57.51029 -81.43356 -0.00000 0.00000 -71.69680
